<svg width="54" height="54" viewBox="0 0 54 54" fill="none" xmlns="http://www.w3.org/2000/svg">
<circle cx="27" cy="27" r="27" fill="#EDEDED"/>
<path d="M28.0459 16.121C28.3191 16.3942 28.4622 16.7419 28.4751 17.1641C28.487 17.5864 28.3564 17.9341 28.0832 18.2073L20.7809 25.5096L37.4345 25.5096C37.8568 25.5096 38.211 25.6527 38.4971 25.9388C38.7822 26.2239 38.9248 26.5776 38.9248 26.9999C38.9248 27.4221 38.7822 27.7763 38.4971 28.0624C38.211 28.3476 37.8568 28.4901 37.4345 28.4901L20.7809 28.4901L28.0832 35.7924C28.3564 36.0656 28.487 36.4133 28.4751 36.8356C28.4622 37.2578 28.3191 37.6055 28.0459 37.8788C27.7727 38.152 27.425 38.2886 27.0027 38.2886C26.5805 38.2886 26.2328 38.152 25.9595 37.8788L16.1238 28.043C15.9748 27.9189 15.869 27.7639 15.8064 27.5781C15.7448 27.3913 15.714 27.1986 15.714 26.9999C15.714 26.8012 15.7448 26.6149 15.8064 26.441C15.869 26.2671 15.9748 26.1057 16.1238 25.9567L25.9595 16.121C26.2328 15.8477 26.5805 15.7111 27.0027 15.7111C27.425 15.7111 27.7727 15.8477 28.0459 16.121Z" fill="#5F6471"/>
</svg>
