<svg width="24" height="24" viewBox="0 0 24 24" fill="none" xmlns="http://www.w3.org/2000/svg">
<g clip-path="url(#clip0_280_280)">
<path d="M10.057 12.2086C10.1007 12.1434 10.1229 12.0663 10.1204 11.9879C10.1179 11.9095 10.091 11.8339 10.0433 11.7716C9.99561 11.7094 9.92961 11.6636 9.85457 11.6408C9.77954 11.618 9.69925 11.6193 9.625 11.6446L7.375 12.3945L7.6135 13.1056L8.8255 12.7006L7.933 14.0416C7.88958 14.1066 7.86757 14.1835 7.87004 14.2617C7.87251 14.3398 7.89933 14.4152 7.94676 14.4773C7.9942 14.5395 8.05986 14.5853 8.13458 14.6082C8.2093 14.6312 8.28934 14.6303 8.3635 14.6056L9.5755 14.2006L8.683 15.5416C8.63958 15.6066 8.61757 15.6835 8.62004 15.7617C8.62251 15.8398 8.64933 15.9152 8.69676 15.9773C8.7442 16.0395 8.80986 16.0853 8.88458 16.1082C8.9593 16.1312 9.03934 16.1303 9.1135 16.1056L11.3635 15.3556L11.125 14.6445L9.913 15.0496L10.807 13.7086C10.8507 13.6434 10.8729 13.5663 10.8704 13.4879C10.8679 13.4095 10.841 13.3339 10.7933 13.2716C10.7456 13.2094 10.6796 13.1636 10.6046 13.1408C10.5295 13.118 10.4493 13.1193 10.375 13.1445L9.163 13.5496L10.057 12.2086Z" fill="#EDEAEA"/>
<path d="M12 24C15.1826 24 18.2348 22.7357 20.4853 20.4853C22.7357 18.2348 24 15.1826 24 12C24 8.8174 22.7357 5.76516 20.4853 3.51472C18.2348 1.26428 15.1826 0 12 0C8.8174 0 5.76516 1.26428 3.51472 3.51472C1.26428 5.76516 0 8.8174 0 12C0 15.1826 1.26428 18.2348 3.51472 20.4853C5.76516 22.7357 8.8174 24 12 24ZM2.697 16.8735L5.679 14.388C5.12174 12.9185 5.09473 11.3006 5.60263 9.81327C6.11052 8.32597 7.12149 7.06251 8.46118 6.24078C9.80087 5.41905 11.3853 5.09055 12.9413 5.31194C14.4972 5.53332 15.9272 6.29071 16.9845 7.4535L11.2455 9.75L12.7455 13.5L14.745 18.165C13.905 18.5415 12.975 18.75 11.9955 18.75C11.1797 18.7508 10.3706 18.6034 9.6075 18.315L7.1205 21.3C5.23212 20.306 3.68971 18.7626 2.697 16.8735ZM18.744 12C18.7452 13.0173 18.516 14.0216 18.0735 14.9376C17.6311 15.8536 16.987 16.6575 16.1895 17.289L14.2455 12.75L18.684 11.085C18.7245 11.385 18.744 11.6895 18.744 12Z" fill="#EDEAEA"/>
</g>
<defs>
<clipPath id="clip0_280_280">
<rect width="24" height="24" fill="white"/>
</clipPath>
</defs>
</svg>
