<svg width="24" height="24" viewBox="0 0 24 24" fill="none" xmlns="http://www.w3.org/2000/svg">
<path d="M10.7996 5.99997C10.7999 6.85092 10.4987 7.67446 9.94953 8.32447C9.40035 8.97449 8.63867 9.40895 7.79962 9.55077V12H14.3996C14.877 12 15.3348 11.8103 15.6724 11.4728C16.01 11.1352 16.1996 10.6774 16.1996 10.2V9.55077C15.3096 9.40033 14.5085 8.92101 13.9552 8.20781C13.4019 7.49461 13.1367 6.59957 13.2122 5.70007C13.2877 4.80057 13.6984 3.96225 14.3628 3.35124C15.0272 2.74023 15.897 2.40112 16.7996 2.40112C17.7023 2.40112 18.572 2.74023 19.2364 3.35124C19.9009 3.96225 20.3115 4.80057 20.387 5.70007C20.4625 6.59957 20.1973 7.49461 19.644 8.20781C19.0907 8.92101 18.2897 9.40033 17.3996 9.55077V10.2C17.3996 10.9956 17.0835 11.7587 16.5209 12.3213C15.9583 12.8839 15.1953 13.2 14.3996 13.2H7.79962V14.4492C8.68965 14.5996 9.4907 15.0789 10.044 15.7921C10.5973 16.5053 10.8625 17.4004 10.787 18.2999C10.7115 19.1994 10.3009 20.0377 9.63644 20.6487C8.97201 21.2597 8.10228 21.5988 7.19962 21.5988C6.29695 21.5988 5.42723 21.2597 4.76279 20.6487C4.09836 20.0377 3.68771 19.1994 3.61223 18.2999C3.53674 17.4004 3.80193 16.5053 4.35523 15.7921C4.90853 15.0789 5.70958 14.5996 6.59962 14.4492V9.55197C5.92295 9.43759 5.29308 9.13219 4.78421 8.67175C4.27534 8.2113 3.90868 7.615 3.72744 6.9531C3.54619 6.29121 3.55791 5.5913 3.76121 4.93584C3.96452 4.28038 4.35093 3.69669 4.87493 3.25354C5.39893 2.81039 6.03867 2.52624 6.71878 2.43458C7.3989 2.34292 8.09104 2.44756 8.71366 2.73618C9.33628 3.0248 9.86343 3.48537 10.233 4.06362C10.6026 4.64187 10.7992 5.31371 10.7996 5.99997Z" fill="#EDEAEA"/>
</svg>
