<svg width="31" height="31" viewBox="0 0 31 31" fill="none" xmlns="http://www.w3.org/2000/svg">
<path fill-rule="evenodd" clip-rule="evenodd" d="M21.5312 16.9596C23.3008 18.1608 24.5408 19.7883 24.5408 21.9583V25.8333H28.4158C29.1262 25.8333 29.7075 25.2521 29.7075 24.5417V21.9583C29.7075 19.1425 25.0962 17.4763 21.5312 16.9596V16.9596Z" fill="#EDEDED"/>
<path d="M11.6237 15.5C14.4772 15.5 16.7904 13.1868 16.7904 10.3333C16.7904 7.47982 14.4772 5.16663 11.6237 5.16663C8.77023 5.16663 6.45703 7.47982 6.45703 10.3333C6.45703 13.1868 8.77023 15.5 11.6237 15.5Z" fill="#EDEDED"/>
<path fill-rule="evenodd" clip-rule="evenodd" d="M19.3763 15.5C22.2309 15.5 24.543 13.1879 24.543 10.3333C24.543 7.47871 22.2309 5.16663 19.3763 5.16663C18.7692 5.16663 18.2009 5.29579 17.6584 5.47663C18.7699 6.85124 19.3763 8.56552 19.3763 10.3333C19.3763 12.1011 18.7699 13.8153 17.6584 15.19C18.2009 15.3708 18.7692 15.5 19.3763 15.5ZM11.6263 16.7916C8.17755 16.7916 1.29297 18.5225 1.29297 21.9583V24.5416C1.29297 25.252 1.87422 25.8333 2.58464 25.8333H20.668C21.3784 25.8333 21.9596 25.252 21.9596 24.5416V21.9583C21.9596 18.5225 15.0751 16.7916 11.6263 16.7916Z" fill="#EDEDED"/>
</svg>
