<svg width="30" height="30" viewBox="0 0 30 30" fill="none" xmlns="http://www.w3.org/2000/svg">
<g clip-path="url(#clip0_393_1631)">
<path d="M14 0V4H16V0H14ZM6.708 7.292L3.708 4.292L2.292 5.708L5.292 8.708L6.708 7.292ZM24.708 8.708L27.708 5.708L26.292 4.292L23.292 7.292L24.708 8.708ZM15 6C13.0935 5.99968 11.2509 6.68727 9.81061 7.93647C8.37036 9.18567 7.42919 10.9126 7.16 12.8L7.14 12.94C6.98797 13.9915 7.04953 15.0628 7.32101 16.09C7.59248 17.1171 8.0683 18.079 8.72 18.918C9.486 19.908 10 20.854 10 21.802V25C10 25.2652 10.1054 25.5196 10.2929 25.7071C10.4804 25.8946 10.7348 26 11 26H19C19.2652 26 19.5196 25.8946 19.7071 25.7071C19.8946 25.5196 20 25.2652 20 25V21.802C20 20.854 20.514 19.908 21.28 18.918C22.54 17.29 23.176 15.168 22.86 12.938L22.84 12.798C22.5704 10.9109 21.629 9.1845 20.1888 7.93571C18.7486 6.68692 16.9062 5.99961 15 6ZM0 16H4V14H0V16ZM26 16H30V14H26V16ZM12 30H18V28H12V30Z" fill="#EDEDED"/>
</g>
<defs>
<clipPath id="clip0_393_1631">
<rect width="30" height="30" fill="white"/>
</clipPath>
</defs>
</svg>
