<svg width="51" height="51" viewBox="0 0 51 51" fill="none" xmlns="http://www.w3.org/2000/svg">
<circle cx="25.5" cy="25.5" r="25.5" fill="#1E1E1E"/>
<path d="M35.4667 19.1208C35.372 18.9907 35.2707 18.8659 35.1634 18.7467C35.2713 18.4492 35.3533 18.1423 35.4084 17.8296C35.5709 16.6859 35.4298 15.518 35 14.4508C35 14.4508 33.6934 14.0285 30.6951 16.1161C29.4221 15.7525 28.1073 15.5699 26.7867 15.5731C25.4624 15.5707 24.1438 15.7533 22.8667 16.1161C19.8684 14.0043 18.5617 14.4508 18.5617 14.4508C18.1371 15.5067 17.9961 16.6615 18.1534 17.7934C18.2087 18.1191 18.2947 18.4383 18.4101 18.7467C18.3051 18.8674 18.2001 19.0001 18.1067 19.1208C17.2361 20.2503 16.774 21.6587 16.8001 23.103C16.7973 23.4455 16.8129 23.7879 16.8467 24.1287C17.2201 29.4744 20.6617 30.7173 23.9401 31.1035C23.476 31.5498 23.1614 32.1373 23.0417 32.7808C22.9333 33.21 22.8823 33.6526 22.8901 34.0962V35.6769C21.5846 35.7976 20.2452 35.6009 19.8299 34.3966C19.384 33.2439 18.6446 32.2377 17.6902 31.4848C17.6205 31.4458 17.5541 31.4005 17.4919 31.3497C17.4081 31.1218 17.2596 30.9256 17.0659 30.7867C16.8723 30.6478 16.6425 30.5727 16.4069 30.5713H16.4011C16.0926 30.5713 15.7968 30.6976 15.5781 30.9226C15.3595 31.1476 15.2359 31.453 15.2344 31.772C15.2309 32.7519 16.1794 33.3854 16.5679 33.6002C17.0218 34.0733 17.3869 34.6293 17.6447 35.2401C18.0694 36.4746 19.3119 38.351 22.8551 38.1073L22.8574 38.2255L22.8621 38.5489C22.8621 38.869 22.985 39.1759 23.2038 39.4022C23.4226 39.6285 23.7193 39.7556 24.0287 39.7556H29.5284C29.8378 39.7556 30.1345 39.6285 30.3533 39.4022C30.5721 39.1759 30.6951 38.869 30.6951 38.5489C30.6951 38.5489 30.7044 34.7357 30.7044 34.0962C30.7122 33.6526 30.6611 33.21 30.5527 32.7808L30.5504 32.7736L30.5551 32.7808C30.5446 32.7386 30.5294 32.7048 30.5177 32.6638C30.3877 32.0659 30.0869 31.5223 29.6544 31.1035L29.6684 31.1288L29.6451 31.1047C32.9234 30.7186 36.3417 29.4515 36.715 24.1299C36.7489 23.7891 36.7645 23.4467 36.7617 23.1042C36.7824 21.6628 36.3254 20.2575 35.4667 19.122V19.1208Z" fill="#EDEDED"/>
</svg>
