<svg width="35" height="35" viewBox="0 0 35 35" fill="none" xmlns="http://www.w3.org/2000/svg">
<circle cx="17.5" cy="17.5" r="17.5" fill="#272E35"/>
<path d="M20.2336 25.4626L12.8617 18.1126C12.7742 18.0251 12.7124 17.9303 12.6762 17.8282C12.6395 17.7261 12.6211 17.6168 12.6211 17.5001C12.6211 17.3834 12.6395 17.2741 12.6762 17.172C12.7124 17.0699 12.7742 16.9751 12.8617 16.8876L20.2336 9.51572C20.4378 9.31156 20.693 9.20947 20.9992 9.20947C21.3055 9.20947 21.568 9.31885 21.7867 9.5376C22.0055 9.75635 22.1148 10.0116 22.1148 10.3032C22.1148 10.5949 22.0055 10.8501 21.7867 11.0688L15.3555 17.5001L21.7867 23.9313C21.9909 24.1355 22.093 24.3869 22.093 24.6856C22.093 24.9848 21.9836 25.2438 21.7648 25.4626C21.5461 25.6813 21.2909 25.7907 20.9992 25.7907C20.7076 25.7907 20.4523 25.6813 20.2336 25.4626Z" fill="#EDEDED"/>
</svg>
