<svg width="51" height="51" viewBox="0 0 51 51" fill="none" xmlns="http://www.w3.org/2000/svg">
<circle cx="25.5" cy="25.5" r="25.5" fill="#3375B0"/>
<path d="M19.2552 15.6668C19.2549 16.374 18.9736 17.0522 18.4732 17.552C17.9729 18.0519 17.2945 18.3325 16.5872 18.3321C15.88 18.3318 15.2018 18.0505 14.702 17.5501C14.2021 17.0498 13.9215 16.3714 13.9219 15.6641C13.9222 14.9569 14.2035 14.2787 14.7039 13.7789C15.2042 13.279 15.8826 12.9984 16.5899 12.9988C17.2971 12.9991 17.9753 13.2804 18.4751 13.7808C18.9749 14.2811 19.2556 14.9595 19.2552 15.6668ZM19.3352 20.3068H14.0019V37.0001H19.3352V20.3068ZM27.7619 20.3068H22.4552V37.0001H27.7085V28.2401C27.7085 23.3601 34.0685 22.9068 34.0685 28.2401V37.0001H39.3352V26.4268C39.3352 18.2001 29.9219 18.5068 27.7085 22.5468L27.7619 20.3068Z" fill="white"/>
</svg>
