<svg width="24" height="24" viewBox="0 0 24 24" fill="none" xmlns="http://www.w3.org/2000/svg">
<g clip-path="url(#clip0_373_1305)">
<path d="M5.60078 9.59998C5.38861 9.59998 5.18513 9.68426 5.0351 9.83429C4.88507 9.98432 4.80078 10.1878 4.80078 10.4V13.6C4.80078 13.8121 4.88507 14.0156 5.0351 14.1657C5.18513 14.3157 5.38861 14.4 5.60078 14.4C5.81295 14.4 6.01644 14.3157 6.16647 14.1657C6.3165 14.0156 6.40078 13.8121 6.40078 13.6V10.4C6.40078 10.1878 6.3165 9.98432 6.16647 9.83429C6.01644 9.68426 5.81295 9.59998 5.60078 9.59998ZM17.6008 11.2H18.4008C18.613 11.2 18.8164 11.1157 18.9665 10.9657C19.1165 10.8156 19.2008 10.6121 19.2008 10.4C19.2008 10.1878 19.1165 9.98432 18.9665 9.83429C18.8164 9.68426 18.613 9.59998 18.4008 9.59998H17.6008V11.2Z" fill="#EDEAEA"/>
<path fill-rule="evenodd" clip-rule="evenodd" d="M0 2.4C0 1.76348 0.252856 1.15303 0.702944 0.702944C1.15303 0.252856 1.76348 0 2.4 0L21.6 0C22.2365 0 22.847 0.252856 23.2971 0.702944C23.7471 1.15303 24 1.76348 24 2.4V21.6C24 22.2365 23.7471 22.847 23.2971 23.2971C22.847 23.7471 22.2365 24 21.6 24H2.4C1.76348 24 1.15303 23.7471 0.702944 23.2971C0.252856 22.847 0 22.2365 0 21.6L0 2.4ZM3.2 10.4C3.2 10.0848 3.26208 9.77274 3.38269 9.48156C3.5033 9.19038 3.68008 8.9258 3.90294 8.70294C4.1258 8.48008 4.39038 8.3033 4.68156 8.18269C4.97274 8.06208 5.28483 8 5.6 8C5.91517 8 6.22726 8.06208 6.51844 8.18269C6.80962 8.3033 7.0742 8.48008 7.29706 8.70294C7.51992 8.9258 7.6967 9.19038 7.81731 9.48156C7.93792 9.77274 8 10.0848 8 10.4V13.6C8 13.9152 7.93792 14.2273 7.81731 14.5184C7.6967 14.8096 7.51992 15.0742 7.29706 15.2971C7.0742 15.5199 6.80962 15.6967 6.51844 15.8173C6.22726 15.9379 5.91517 16 5.6 16C5.28483 16 4.97274 15.9379 4.68156 15.8173C4.39038 15.6967 4.1258 15.5199 3.90294 15.2971C3.68008 15.0742 3.5033 14.8096 3.38269 14.5184C3.26208 14.2273 3.2 13.9152 3.2 13.6V10.4ZM11.2 9.6H9.6V8H14.4V9.6H12.8V16H11.2V9.6ZM16 8H18.4C19.0365 8 19.647 8.25286 20.0971 8.70294C20.5471 9.15303 20.8 9.76348 20.8 10.4C20.8 11.0365 20.5471 11.647 20.0971 12.0971C19.647 12.5471 19.0365 12.8 18.4 12.8H17.6V16H16V8Z" fill="#EDEAEA"/>
</g>
<defs>
<clipPath id="clip0_373_1305">
<rect width="24" height="24" fill="white"/>
</clipPath>
</defs>
</svg>
