<svg width="36" height="35" viewBox="0 0 36 35" fill="none" xmlns="http://www.w3.org/2000/svg">
<circle cx="17.502" cy="17.4998" r="17.5" transform="rotate(-180 17.502 17.4998)" fill="#272E35"/>
<path d="M14.7684 9.53716L22.1402 16.8872C22.2277 16.9747 22.2896 17.0694 22.3257 17.1715C22.3625 17.2736 22.3809 17.383 22.3809 17.4997C22.3809 17.6163 22.3625 17.7257 22.3257 17.8278C22.2896 17.9299 22.2277 18.0247 22.1402 18.1122L14.7684 25.484C14.5642 25.6882 14.309 25.7903 14.0027 25.7903C13.6965 25.7903 13.434 25.6809 13.2152 25.4622C12.9965 25.2434 12.8871 24.9882 12.8871 24.6965C12.8871 24.4049 12.9965 24.1497 13.2152 23.9309L19.6465 17.4997L13.2152 11.0684C13.0111 10.8642 12.909 10.6128 12.909 10.3142C12.909 10.0149 13.0184 9.75591 13.2371 9.53716C13.4559 9.31841 13.7111 9.20903 14.0027 9.20903C14.2944 9.20903 14.5496 9.31841 14.7684 9.53716Z" fill="#EDEDED"/>
</svg>
