<svg width="34" height="34" viewBox="0 0 34 34" fill="none" xmlns="http://www.w3.org/2000/svg">
<path d="M26.9154 12.7499C26.0385 12.7523 25.1839 13.026 24.4687 13.5332C23.7535 14.0405 23.2126 14.7565 22.9204 15.5832H4.2487C3.87297 15.5832 3.51264 15.7325 3.24696 15.9981C2.98129 16.2638 2.83203 16.6242 2.83203 16.9999C2.83203 17.3756 2.98129 17.7359 3.24696 18.0016C3.51264 18.2673 3.87297 18.4165 4.2487 18.4165H22.9204C23.1803 19.1516 23.6373 19.801 24.2416 20.2937C24.8459 20.7864 25.574 21.1034 26.3464 21.21C27.1187 21.3165 27.9055 21.2086 28.6206 20.898C29.3357 20.5873 29.9516 20.0859 30.4009 19.4487C30.8501 18.8115 31.1154 18.063 31.1677 17.2851C31.22 16.5071 31.0574 15.7298 30.6975 15.0382C30.3376 14.3465 29.7944 13.7672 29.1273 13.3636C28.4603 12.96 27.695 12.7477 26.9154 12.7499ZM4.2487 9.91654H5.92036C6.21815 10.737 6.76134 11.4459 7.4761 11.9469C8.19086 12.4478 9.04253 12.7166 9.91536 12.7166C10.7882 12.7166 11.6399 12.4478 12.3546 11.9469C13.0694 11.4459 13.6126 10.737 13.9104 9.91654H29.7487C30.1244 9.91654 30.4848 9.76729 30.7504 9.50161C31.0161 9.23594 31.1654 8.8756 31.1654 8.49988C31.1654 8.12415 31.0161 7.76382 30.7504 7.49814C30.4848 7.23247 30.1244 7.08321 29.7487 7.08321H13.9104C13.6126 6.26275 13.0694 5.55386 12.3546 5.0529C11.6399 4.55194 10.7882 4.2832 9.91536 4.2832C9.04253 4.2832 8.19086 4.55194 7.4761 5.0529C6.76134 5.55386 6.21815 6.26275 5.92036 7.08321H4.2487C3.87297 7.08321 3.51264 7.23247 3.24696 7.49814C2.98129 7.76382 2.83203 8.12415 2.83203 8.49988C2.83203 8.8756 2.98129 9.23594 3.24696 9.50161C3.51264 9.76729 3.87297 9.91654 4.2487 9.91654ZM29.7487 24.0832H19.577C19.2792 23.2627 18.7361 22.5539 18.0213 22.0529C17.3065 21.5519 16.4549 21.2832 15.582 21.2832C14.7092 21.2832 13.8575 21.5519 13.1428 22.0529C12.428 22.5539 11.8848 23.2627 11.587 24.0832H4.2487C3.87297 24.0832 3.51264 24.2325 3.24696 24.4981C2.98129 24.7638 2.83203 25.1242 2.83203 25.4999C2.83203 25.8756 2.98129 26.2359 3.24696 26.5016C3.51264 26.7673 3.87297 26.9165 4.2487 26.9165H11.587C11.8848 27.737 12.428 28.4459 13.1428 28.9469C13.8575 29.4478 14.7092 29.7166 15.582 29.7166C16.4549 29.7166 17.3065 29.4478 18.0213 28.9469C18.7361 28.4459 19.2792 27.737 19.577 26.9165H29.7487C30.1244 26.9165 30.4848 26.7673 30.7504 26.5016C31.0161 26.2359 31.1654 25.8756 31.1654 25.4999C31.1654 25.1242 31.0161 24.7638 30.7504 24.4981C30.4848 24.2325 30.1244 24.0832 29.7487 24.0832Z" fill="#EDEDED"/>
</svg>
