<svg width="51" height="51" viewBox="0 0 51 51" fill="none" xmlns="http://www.w3.org/2000/svg">
<circle cx="25.5" cy="25.5" r="25.5" fill="#25A0EF"/>
<path d="M39.0099 17.7501C38.0154 18.2022 36.9433 18.4992 35.8324 18.6413C36.9691 17.9567 37.8474 16.8717 38.2608 15.5672C37.1887 16.213 36.0004 16.6651 34.7474 16.9234C33.727 15.8126 32.2933 15.1667 30.6658 15.1667C27.6304 15.1667 25.1504 17.6467 25.1504 20.708C25.1504 21.1472 25.202 21.5734 25.2924 21.9738C20.6941 21.7413 16.5995 19.5326 13.8741 16.1872C13.3962 17.0009 13.1249 17.9567 13.1249 18.9642C13.1249 20.8888 14.0937 22.5938 15.592 23.5626C14.6749 23.5626 13.8224 23.3042 13.0733 22.9167V22.9555C13.0733 25.6422 14.9849 27.8897 17.5166 28.3934C16.7038 28.6159 15.8505 28.6468 15.0237 28.4838C15.3745 29.585 16.0616 30.5484 16.9883 31.2389C17.9151 31.9293 19.0349 32.3119 20.1904 32.333C18.2317 33.8836 15.8039 34.7217 13.3058 34.7097C12.8666 34.7097 12.4274 34.6838 11.9883 34.6322C14.4424 36.208 17.3616 37.1251 20.4874 37.1251C30.6658 37.1251 36.2587 28.6776 36.2587 21.3538C36.2587 21.1084 36.2587 20.8759 36.2458 20.6305C37.3308 19.8555 38.2608 18.8738 39.0099 17.7501Z" fill="white"/>
</svg>
