<svg width="67" height="46" viewBox="0 0 67 46" fill="none" xmlns="http://www.w3.org/2000/svg">
<path d="M45.6818 19.7155C50.7373 19.7155 54.7877 15.4011 54.7877 10.0563C54.7877 4.71162 50.7373 0.397217 45.6818 0.397217C40.6264 0.397217 36.5455 4.71162 36.5455 10.0563C36.5455 15.4011 40.6264 19.7155 45.6818 19.7155ZM21.3182 19.7155C26.3736 19.7155 30.4241 15.4011 30.4241 10.0563C30.4241 4.71162 26.3736 0.397217 21.3182 0.397217C16.2627 0.397217 12.1818 4.71162 12.1818 10.0563C12.1818 15.4011 16.2627 19.7155 21.3182 19.7155ZM21.3182 26.1549C14.2223 26.1549 0 29.9219 0 37.4238V45.4731H42.6364V37.4238C42.6364 29.9219 28.4141 26.1549 21.3182 26.1549ZM45.6818 26.1549C44.7986 26.1549 43.7936 26.2193 42.7277 26.3159C46.2605 29.0204 48.7273 32.6587 48.7273 37.4238V45.4731H67V37.4238C67 29.9219 52.7777 26.1549 45.6818 26.1549Z" fill="#407BFF"/>
</svg>
