<svg width="471" height="468" viewBox="0 0 471 468" fill="none" xmlns="http://www.w3.org/2000/svg">
<rect width="408" height="468" rx="57" fill="#343434"/>
<rect x="27" y="55" width="154" height="163" rx="29" fill="#414149"/>
<rect x="27" y="257" width="154" height="163" rx="29" fill="#414149"/>
<rect x="209" y="256" width="154" height="163" rx="29" fill="#414149"/>
<rect x="205" y="23" width="266" height="195" rx="29" fill="white"/>
<g clip-path="url(#clip0_492_145)">
<path d="M389.552 94.6256C387.849 94.0352 386.132 93.4883 384.402 92.9854C384.692 91.7854 384.96 90.5999 385.198 89.4353C389.096 70.3104 386.548 54.903 377.842 49.8302C369.495 44.967 355.844 50.038 342.058 62.1624C340.699 63.3595 339.371 64.591 338.074 65.8559C337.205 65.0148 336.322 64.19 335.423 63.382C320.974 50.4182 306.492 44.9544 297.796 50.0418C289.456 54.9201 286.987 69.4041 290.497 87.5292C290.846 89.3243 291.24 91.1101 291.679 92.8849C289.629 93.4736 287.651 94.1001 285.758 94.767C268.818 100.735 258 110.089 258 119.79C258 129.81 269.614 139.861 287.257 145.955C288.688 146.447 290.13 146.903 291.583 147.322C291.111 149.234 290.692 151.158 290.327 153.093C286.981 170.904 289.594 185.046 297.911 189.893C306.501 194.899 320.918 189.754 334.956 177.353C336.095 176.345 337.208 175.308 338.295 174.244C339.7 175.613 341.142 176.943 342.62 178.231C356.219 190.056 369.649 194.831 377.958 189.97C386.539 184.95 389.329 169.758 385.708 151.274C385.422 149.826 385.102 148.386 384.748 146.953C385.761 146.65 386.754 146.338 387.723 146.013C406.066 139.873 418 129.944 418 119.79C418 110.053 406.833 100.637 389.552 94.6256ZM385.574 139.458C384.699 139.75 383.801 140.032 382.886 140.307C380.861 133.829 378.129 126.941 374.784 119.824C377.976 112.876 380.603 106.076 382.571 99.6403C384.208 100.119 385.796 100.624 387.327 101.156C402.134 106.307 411.165 113.922 411.165 119.79C411.165 126.04 401.411 134.154 385.574 139.458ZM379.003 152.616C380.604 160.789 380.832 168.178 379.771 173.955C378.819 179.146 376.902 182.606 374.533 183.993C369.491 186.942 358.707 183.109 347.078 172.996C345.703 171.798 344.362 170.562 343.055 169.288C347.564 164.306 352.069 158.514 356.467 152.08C364.202 151.387 371.509 150.253 378.136 148.705C378.455 150.001 378.744 151.305 379.003 152.616ZM312.548 183.483C307.621 185.241 303.697 185.291 301.326 183.909C296.279 180.968 294.181 169.613 297.042 154.382C297.383 152.582 297.772 150.792 298.211 149.014C304.764 150.479 312.019 151.533 319.772 152.168C324.199 158.463 328.835 164.249 333.507 169.315C332.514 170.286 331.498 171.232 330.459 172.153C324.251 177.636 318.03 181.526 312.548 183.483ZM289.469 139.419C281.667 136.724 275.224 133.222 270.808 129.4C266.839 125.966 264.836 122.557 264.836 119.79C264.836 113.903 273.521 106.393 288.008 101.289C289.766 100.67 291.606 100.086 293.516 99.538C295.518 106.119 298.144 113 301.314 119.958C298.103 127.019 295.439 134.01 293.417 140.669C292.091 140.285 290.775 139.868 289.469 139.419ZM297.205 86.2022C294.198 70.6736 296.195 58.9597 301.221 56.0197C306.573 52.8883 318.409 57.3529 330.885 68.547C331.699 69.2787 332.499 70.0251 333.286 70.786C328.637 75.8304 324.044 81.5734 319.656 87.8311C312.131 88.5359 304.927 89.6677 298.305 91.1841C297.897 89.5333 297.53 87.8723 297.205 86.2028V86.2022ZM366.222 103.424C364.658 100.694 363.035 97.9977 361.356 95.338C366.461 95.9904 371.353 96.8563 375.946 97.9148C374.567 102.381 372.848 107.051 370.825 111.838C369.346 109.003 367.812 106.197 366.222 103.424ZM338.077 75.7224C341.229 79.174 344.387 83.0273 347.493 87.2083C341.193 86.9076 334.882 86.9064 328.582 87.2045C331.691 83.062 334.875 79.2138 338.077 75.7224ZM309.751 103.471C308.181 106.223 306.675 109.01 305.234 111.832C303.244 107.062 301.541 102.371 300.151 97.8416C304.716 96.8096 309.584 95.9658 314.656 95.3254C312.958 98.0014 311.323 100.717 309.751 103.471V103.471ZM314.802 144.746C309.561 144.155 304.62 143.355 300.056 142.351C301.469 137.74 303.209 132.95 305.243 128.077C306.689 130.901 308.202 133.691 309.778 136.443C311.399 139.273 313.078 142.044 314.802 144.746ZM338.266 164.344C335.026 160.813 331.794 156.905 328.639 152.702C331.702 152.824 334.826 152.886 338 152.886C341.261 152.886 344.485 152.812 347.658 152.669C344.543 156.947 341.397 160.861 338.266 164.344ZM370.889 127.828C373.028 132.755 374.831 137.52 376.262 142.051C371.623 143.121 366.614 143.983 361.337 144.623C363.028 141.913 364.666 139.171 366.249 136.396C367.858 133.575 369.406 130.719 370.889 127.828ZM360.328 132.945C357.904 137.199 355.345 141.373 352.652 145.459C347.776 145.808 342.889 145.982 338 145.979C333.021 145.979 328.177 145.823 323.514 145.517C320.751 141.44 318.143 137.259 315.693 132.983H315.694C313.256 128.729 310.978 124.383 308.867 119.955C310.973 115.526 313.243 111.178 315.673 106.921L315.673 106.922C318.101 102.664 320.689 98.5006 323.431 94.4412C328.189 94.0774 333.068 93.8879 337.999 93.8879H338C342.954 93.8879 347.839 94.0793 352.596 94.4456C355.31 98.499 357.881 102.648 360.306 106.885C362.743 111.132 365.044 115.459 367.203 119.857C365.066 124.301 362.773 128.666 360.328 132.945ZM374.428 55.8138C379.786 58.9363 381.869 71.5281 378.503 88.0407C378.288 89.0942 378.047 90.1673 377.784 91.2555C371.146 89.7068 363.938 88.5555 356.391 87.8399C351.994 81.5134 347.439 75.7616 342.866 70.7822C344.064 69.6147 345.291 68.4775 346.546 67.3717C358.358 56.9841 369.398 52.8826 374.428 55.8138ZM338 105.352C345.891 105.352 352.287 111.817 352.287 119.79C352.287 127.764 345.891 134.228 338 134.228C330.109 134.228 323.713 127.764 323.713 119.79C323.713 111.817 330.109 105.352 338 105.352Z" fill="#00D8FF"/>
</g>
<g clip-path="url(#clip1_492_145)">
<path d="M88 185C96.832 185 104 177.757 104 168.833V152.667H88C79.168 152.667 72 159.909 72 168.833C72 177.757 79.168 185 88 185Z" fill="#0ACF83"/>
<path d="M72 136.5C72 127.576 79.168 120.333 88 120.333H104V152.667H88C79.168 152.667 72 145.424 72 136.5Z" fill="#A259FF"/>
<path d="M72 104.167C72 95.2427 79.168 88 88 88H104V120.333H88C79.168 120.333 72 113.091 72 104.167Z" fill="#F24E1E"/>
<path d="M104 88H120C128.832 88 136 95.2427 136 104.167C136 113.091 128.832 120.333 120 120.333H104V88Z" fill="#FF7262"/>
<path d="M136 136.5C136 145.424 128.832 152.667 120 152.667C111.168 152.667 104 145.424 104 136.5C104 127.576 111.168 120.333 120 120.333C128.832 120.333 136 127.576 136 136.5Z" fill="#1ABCFE"/>
</g>
<g clip-path="url(#clip2_492_145)">
<path d="M103.099 290.027C79.0399 290.027 80.5421 300.501 80.5421 300.501L80.5688 311.353H103.528V314.611H71.4499C71.4499 314.611 56.0547 312.858 56.0547 337.228C56.0547 361.599 69.492 360.735 69.492 360.735H77.5113V349.426C77.5113 349.426 77.079 335.936 90.7341 335.936H113.505C113.505 335.936 126.299 336.143 126.299 323.523V302.655C126.299 302.655 128.242 290.027 103.099 290.027ZM90.4391 297.324C90.9817 297.324 91.519 297.431 92.0203 297.639C92.5216 297.847 92.9771 298.153 93.3608 298.538C93.7444 298.923 94.0486 299.38 94.256 299.883C94.4634 300.387 94.5699 300.926 94.5694 301.471C94.5699 302.015 94.4634 302.555 94.256 303.058C94.0486 303.561 93.7444 304.019 93.3608 304.404C92.9771 304.789 92.5216 305.094 92.0203 305.303C91.519 305.511 90.9817 305.618 90.4391 305.617C89.8966 305.618 89.3593 305.511 88.858 305.303C88.3566 305.094 87.9011 304.789 87.5175 304.404C87.1339 304.019 86.8296 303.561 86.6222 303.058C86.4149 302.555 86.3084 302.015 86.3088 301.471C86.3084 300.926 86.4149 300.387 86.6222 299.883C86.8296 299.38 87.1339 298.923 87.5175 298.538C87.9011 298.153 88.3566 297.847 88.858 297.639C89.3593 297.431 89.8966 297.324 90.4391 297.324Z" fill="url(#paint0_linear_492_145)"/>
<path d="M103.78 384.674C127.839 384.674 126.337 374.2 126.337 374.2L126.31 363.349H103.351V360.091H135.429C135.429 360.091 150.824 361.844 150.824 337.473C150.824 313.102 137.386 313.966 137.386 313.966H129.367V325.275C129.367 325.275 129.799 338.765 116.144 338.765H93.3732C93.3732 338.765 80.5797 338.558 80.5797 351.178V372.046C80.5797 372.046 78.637 384.674 103.78 384.674H103.78ZM116.44 377.378C115.897 377.378 115.36 377.271 114.858 377.063C114.357 376.855 113.902 376.549 113.518 376.164C113.134 375.779 112.83 375.322 112.623 374.819C112.415 374.315 112.309 373.776 112.309 373.231C112.309 372.686 112.415 372.147 112.623 371.644C112.83 371.14 113.134 370.683 113.518 370.298C113.902 369.913 114.357 369.607 114.858 369.399C115.36 369.191 115.897 369.084 116.44 369.084C116.982 369.084 117.519 369.191 118.021 369.399C118.522 369.607 118.978 369.913 119.361 370.298C119.745 370.683 120.049 371.14 120.257 371.643C120.464 372.147 120.57 372.686 120.57 373.231C120.57 373.775 120.464 374.315 120.257 374.818C120.049 375.321 119.745 375.779 119.361 376.164C118.978 376.549 118.522 376.854 118.021 377.063C117.519 377.271 116.982 377.378 116.44 377.377V377.378Z" fill="url(#paint1_linear_492_145)"/>
</g>
<path d="M299.635 295.837L304.035 287.899C304.092 287.797 304.127 287.685 304.14 287.57C304.153 287.454 304.144 287.337 304.111 287.226C304.079 287.114 304.026 287.01 303.953 286.919C303.881 286.828 303.791 286.752 303.689 286.696C303.588 286.639 303.476 286.604 303.36 286.591C303.245 286.578 303.128 286.587 303.016 286.619C302.904 286.652 302.8 286.705 302.709 286.778C302.618 286.85 302.542 286.94 302.486 287.042L298.04 295.063C294.245 293.399 290.146 292.539 286.002 292.539C281.858 292.539 277.759 293.399 273.964 295.063L269.518 287.042C269.405 286.835 269.214 286.682 268.987 286.616C268.761 286.551 268.517 286.577 268.311 286.691C268.104 286.805 267.951 286.996 267.885 287.222C267.819 287.449 267.846 287.692 267.96 287.899L272.36 295.837C268.173 297.902 264.636 301.08 262.137 305.022C259.637 308.964 258.271 313.518 258.188 318.185H313.816C313.733 313.517 312.365 308.962 309.864 305.02C307.362 301.078 303.824 297.901 299.635 295.837ZM273.167 308.006C272.707 308.006 272.257 307.869 271.875 307.614C271.493 307.358 271.195 306.995 271.019 306.57C270.844 306.145 270.798 305.678 270.888 305.227C270.978 304.776 271.2 304.362 271.525 304.037C271.851 303.713 272.265 303.492 272.716 303.402C273.167 303.313 273.634 303.36 274.059 303.537C274.484 303.713 274.846 304.012 275.101 304.394C275.356 304.777 275.491 305.227 275.49 305.687C275.489 306.302 275.244 306.892 274.808 307.327C274.372 307.762 273.782 308.006 273.167 308.006ZM298.842 308.006C298.383 308.006 297.933 307.869 297.551 307.614C297.169 307.358 296.871 306.995 296.695 306.57C296.519 306.145 296.474 305.678 296.564 305.227C296.654 304.776 296.875 304.362 297.201 304.037C297.526 303.713 297.941 303.492 298.392 303.402C298.843 303.313 299.31 303.36 299.735 303.537C300.159 303.713 300.522 304.012 300.777 304.394C301.032 304.777 301.167 305.227 301.166 305.687C301.165 306.302 300.92 306.892 300.484 307.327C300.048 307.762 299.458 308.006 298.842 308.006ZM258.179 360.7C258.178 361.585 258.351 362.462 258.69 363.28C259.028 364.097 259.524 364.84 260.15 365.466C260.776 366.091 261.519 366.587 262.337 366.925C263.155 367.262 264.032 367.435 264.917 367.433H269.376V381.183C269.376 382.837 270.033 384.423 271.203 385.593C272.372 386.762 273.958 387.419 275.612 387.419C277.266 387.419 278.852 386.762 280.021 385.593C281.19 384.423 281.847 382.837 281.847 381.183V367.433H290.162V381.183C290.162 382.837 290.818 384.422 291.987 385.591C293.156 386.76 294.742 387.417 296.395 387.417C298.048 387.417 299.634 386.76 300.803 385.591C301.972 384.422 302.628 382.837 302.628 381.183V367.433H307.092C307.976 367.434 308.851 367.26 309.668 366.922C310.485 366.585 311.227 366.089 311.851 365.464C312.476 364.839 312.972 364.097 313.31 363.281C313.648 362.464 313.821 361.589 313.821 360.705V320.385H258.179V360.7ZM249.622 319.313C247.969 319.315 246.384 319.974 245.215 321.143C244.047 322.312 243.39 323.898 243.389 325.551V351.534C243.389 352.352 243.55 353.163 243.863 353.919C244.176 354.675 244.636 355.363 245.214 355.941C245.793 356.52 246.48 356.979 247.237 357.293C247.993 357.606 248.803 357.767 249.622 357.767C250.441 357.767 251.251 357.606 252.007 357.293C252.764 356.979 253.451 356.52 254.03 355.941C254.608 355.363 255.068 354.675 255.381 353.919C255.694 353.163 255.855 352.352 255.855 351.534V325.551C255.853 323.898 255.195 322.314 254.027 321.146C252.859 319.977 251.274 319.32 249.622 319.318V319.313ZM322.369 319.313C320.715 319.315 319.131 319.974 317.962 321.143C316.794 322.312 316.137 323.898 316.135 325.551V351.534C316.135 352.352 316.297 353.163 316.61 353.919C316.923 354.675 317.382 355.363 317.961 355.941C318.54 356.52 319.227 356.979 319.983 357.293C320.74 357.606 321.55 357.767 322.369 357.767C323.187 357.767 323.998 357.606 324.754 357.293C325.51 356.979 326.197 356.52 326.776 355.941C327.355 355.363 327.814 354.675 328.128 353.919C328.441 353.163 328.602 352.352 328.602 351.534V325.551C328.6 323.898 327.942 322.314 326.774 321.146C325.605 319.977 324.021 319.32 322.369 319.318V319.313Z" fill="#78C257"/>
<defs>
<linearGradient id="paint0_linear_492_145" x1="65.1621" y1="298.54" x2="112.31" y2="345.035" gradientUnits="userSpaceOnUse">
<stop stop-color="#387EB8"/>
<stop offset="1" stop-color="#366994"/>
</linearGradient>
<linearGradient id="paint1_linear_492_145" x1="93.9878" y1="328.514" x2="144.61" y2="376.182" gradientUnits="userSpaceOnUse">
<stop stop-color="#FFE052"/>
<stop offset="1" stop-color="#FFC331"/>
</linearGradient>
<clipPath id="clip0_492_145">
<rect width="160" height="144" fill="white" transform="translate(258 48)"/>
</clipPath>
<clipPath id="clip1_492_145">
<rect width="64" height="97" fill="white" transform="translate(72 88)"/>
</clipPath>
<clipPath id="clip2_492_145">
<rect width="95" height="95" fill="white" transform="translate(56 290)"/>
</clipPath>
</defs>
</svg>
