<svg width="87" height="89" viewBox="0 0 87 89" fill="none" xmlns="http://www.w3.org/2000/svg">
<path d="M27.125 9.125C25.2022 9.125 23.3581 9.9064 21.9985 11.2973C20.6388 12.6882 19.875 14.5746 19.875 16.5417V31.375C19.875 33.342 19.1112 35.2285 17.7515 36.6194C16.3919 38.0103 14.5478 38.7917 12.625 38.7917H9V46.2083H12.625C14.5478 46.2083 16.3919 46.9897 17.7515 48.3806C19.1112 49.7715 19.875 51.658 19.875 53.625V68.4583C19.875 70.4254 20.6388 72.3118 21.9985 73.7027C23.3581 75.0936 25.2022 75.875 27.125 75.875H34.375V68.4583H27.125V49.9167C27.125 47.9496 26.3612 46.0632 25.0015 44.6723C23.6419 43.2814 21.7978 42.5 19.875 42.5C21.7978 42.5 23.6419 41.7186 25.0015 40.3277C26.3612 38.9368 27.125 37.0504 27.125 35.0833V16.5417H34.375V9.125M56.125 9.125C58.0478 9.125 59.8919 9.9064 61.2515 11.2973C62.6112 12.6882 63.375 14.5746 63.375 16.5417V31.375C63.375 33.342 64.1388 35.2285 65.4985 36.6194C66.8581 38.0103 68.7022 38.7917 70.625 38.7917H74.25V46.2083H70.625C68.7022 46.2083 66.8581 46.9897 65.4985 48.3806C64.1388 49.7715 63.375 51.658 63.375 53.625V68.4583C63.375 70.4254 62.6112 72.3118 61.2515 73.7027C59.8919 75.0936 58.0478 75.875 56.125 75.875H48.875V68.4583H56.125V49.9167C56.125 47.9496 56.8888 46.0632 58.2485 44.6723C59.6081 43.2814 61.4522 42.5 63.375 42.5C61.4522 42.5 59.6081 41.7186 58.2485 40.3277C56.8888 38.9368 56.125 37.0504 56.125 35.0833V16.5417H48.875V9.125H56.125Z" fill="#6F2682"/>
</svg>
