<svg width="64" height="68" viewBox="0 0 64 68" fill="none" xmlns="http://www.w3.org/2000/svg">
<path d="M57.1144 24.6783C60.3956 21.1367 58.8994 17 57.1144 14.9883L49.2394 6.48834C45.9319 2.94667 42.1256 4.56167 40.2619 6.48834L35.7994 11.3333H29.0006C24.0131 11.3333 21.1256 14.1667 19.6556 17.425L8.00064 30.005V41.3383L6.13689 43.3217C2.85564 46.8917 4.35189 51 6.13689 53.0117L14.0119 61.5117C15.4294 63.0417 16.9519 63.6083 18.3956 63.6083C20.2594 63.6083 21.9656 62.6167 22.9894 61.5117L30.0769 53.8333H39.5006C43.9631 53.8333 46.2206 50.83 47.0344 47.8833C50.0006 47.0333 51.6281 44.5967 52.2844 42.2167C56.3531 41.0833 57.8756 36.9183 57.8756 34V25.5H56.3269L57.1144 24.6783ZM52.6256 34C52.6256 35.275 52.1269 36.8333 50.0006 36.8333H47.3756V39.6667C47.3756 40.9417 46.8769 42.5 44.7506 42.5H42.1256V45.3333C42.1256 46.6083 41.6269 48.1667 39.5006 48.1667H27.9244L19.3144 57.46C18.5006 58.2817 18.0281 57.8 17.7394 57.4883L9.89064 49.045C9.12939 48.1667 9.57564 47.6567 9.86439 47.345L13.2506 43.6617V32.3283L18.5006 26.6617V31.1667C18.5006 34.595 20.6006 39.6667 26.3756 39.6667C32.1506 39.6667 34.2506 34.595 34.2506 31.1667H52.6256V34ZM53.3869 20.655L48.9244 25.5H29.0006V31.1667C29.0006 32.4417 28.5019 34 26.3756 34C24.2494 34 23.7506 32.4417 23.7506 31.1667V22.6667C23.7506 21.3633 24.1969 17 29.0006 17H37.9519L43.9369 10.54C44.7506 9.71834 45.2231 10.2 45.5119 10.5117L53.3606 18.955C54.1219 19.8333 53.6756 20.3433 53.3869 20.655Z" fill="#A03030"/>
</svg>
