<svg width="60" height="63" viewBox="0 0 60 63" fill="none" xmlns="http://www.w3.org/2000/svg">
<path d="M54.1463 46.7209C55.6988 46.7209 57.1877 46.0651 58.2855 44.8977C59.3833 43.7303 60 42.1471 60 40.4961V6.25992C60 4.60901 59.3833 3.02572 58.2855 1.85835C57.1877 0.690978 55.6988 0.0351563 54.1463 0.0351562H23.2976C24.322 1.93371 24.878 4.08125 24.878 6.25992H54.1463V40.4961H27.8049V46.7209M39.5122 15.5971V21.8218H21.9512V62.2828H16.0976V43.6085H10.2439V62.2828H4.39024V37.3838H0V21.8218C0 20.1709 0.616723 18.5876 1.7145 17.4203C2.81227 16.2529 4.30117 15.5971 5.85366 15.5971H39.5122ZM19.0244 6.25992C19.0244 7.91083 18.4077 9.49413 17.3099 10.6615C16.2121 11.8289 14.7232 12.4847 13.1707 12.4847C11.6182 12.4847 10.1293 11.8289 9.03157 10.6615C7.9338 9.49413 7.31707 7.91083 7.31707 6.25992C7.31707 4.60901 7.9338 3.02572 9.03157 1.85835C10.1293 0.690978 11.6182 0.0351563 13.1707 0.0351562C14.7232 0.0351563 16.2121 0.690978 17.3099 1.85835C18.4077 3.02572 19.0244 4.60901 19.0244 6.25992Z" fill="#F32053"/>
</svg>
