<svg width="807" height="403" viewBox="0 0 807 403" fill="none" xmlns="http://www.w3.org/2000/svg">
<path d="M0.506584 110.502C13.8399 43.8355 27.1732 43.8355 40.5066 110.502C53.8399 177.169 67.1732 177.169 80.5066 110.502C93.8399 43.8355 107.173 43.8355 120.507 110.502C133.84 177.169 147.173 177.169 160.506 110.502C173.84 43.8355 187.173 43.8355 200.506 110.502C213.84 177.169 227.173 177.169 240.506 110.502C253.84 43.8355 267.173 43.8355 280.506 110.502C293.84 177.169 307.173 177.169 320.506 110.502C333.84 43.8355 347.173 43.8355 360.506 110.502C373.84 177.169 387.173 177.169 400.507 110.502" stroke="#326FF9" stroke-opacity="0.31"/>
<path d="M404.066 191.692C418.157 51.0677 431.492 50.9164 444.07 191.238C456.649 331.56 469.984 331.409 484.075 190.784C498.166 50.16 511.501 50.0087 524.08 190.33C536.658 330.652 549.993 330.501 564.084 189.877C578.176 49.2523 591.51 49.101 604.089 189.423C616.667 329.744 630.002 329.593 644.094 188.969C658.185 48.3445 671.52 48.1932 684.098 188.515C696.677 328.837 710.012 328.685 724.103 188.061C738.194 47.4368 751.529 47.2855 764.107 187.607C776.686 327.929 790.021 327.778 804.112 187.153" stroke="#FFC700" stroke-width="5"/>
<path d="M1.71362 275.479C15.0469 208.813 28.3803 208.813 41.7136 275.479C55.0469 342.146 68.3803 342.146 81.7136 275.479C95.0469 208.813 108.38 208.813 121.714 275.479C135.047 342.146 148.38 342.146 161.714 275.479C175.047 208.813 188.38 208.813 201.714 275.479C215.047 342.146 228.38 342.146 241.714 275.479C255.047 208.813 268.38 208.813 281.714 275.479C295.047 342.146 308.38 342.146 321.714 275.479C335.047 208.813 348.38 208.813 361.714 275.479C375.047 342.146 388.38 342.146 401.714 275.479" stroke="#0CD920" stroke-opacity="0.27"/>
<line x1="401.707" y1="402.011" x2="401.707" stroke="white"/>
</svg>
