<svg width="70" height="71" viewBox="0 0 70 71" fill="none" xmlns="http://www.w3.org/2000/svg">
<g clip-path="url(#clip0_252_1621)">
<path d="M32.6667 0V9.46667H37.3333V0H32.6667ZM15.652 17.2577L8.652 10.1577L5.348 13.5089L12.348 20.6089L15.652 17.2577ZM57.652 20.6089L64.652 13.5089L61.348 10.1577L54.348 17.2577L57.652 20.6089ZM35 14.2C30.5515 14.1992 26.252 15.8265 22.8914 18.783C19.5308 21.7394 17.3348 25.8264 16.7067 30.2933L16.66 30.6247C16.3053 33.1132 16.4489 35.6487 17.0824 38.0796C17.7158 40.5105 18.826 42.7868 20.3467 44.7726C22.134 47.1156 23.3333 49.3545 23.3333 51.5981V59.1667C23.3333 59.7943 23.5792 60.3963 24.0168 60.8402C24.4543 61.284 25.0478 61.5333 25.6667 61.5333H44.3333C44.9522 61.5333 45.5457 61.284 45.9832 60.8402C46.4208 60.3963 46.6667 59.7943 46.6667 59.1667V51.5981C46.6667 49.3545 47.866 47.1156 49.6533 44.7726C52.5933 40.9197 54.0773 35.8976 53.34 30.6199L53.2933 30.2886C52.6642 25.8226 50.4677 21.7367 47.1072 18.7812C43.7467 15.8257 39.4478 14.1991 35 14.2ZM0 37.8667H9.33333V33.1333H0V37.8667ZM60.6667 37.8667H70V33.1333H60.6667V37.8667ZM28 71H42V66.2667H28V71Z" fill="#FFC700"/>
</g>
<defs>
<clipPath id="clip0_252_1621">
<rect width="70" height="71" fill="white"/>
</clipPath>
</defs>
</svg>
