<svg width="905" height="470" viewBox="0 0 905 470" fill="none" xmlns="http://www.w3.org/2000/svg">
<line x1="220.5" y1="470" x2="220.5" stroke="#092E43" stroke-opacity="0.29" stroke-width="3"/>
<line x1="220.5" y1="470" x2="220.5" stroke="#092E43" stroke-opacity="0.29" stroke-width="3"/>
<line x1="220.5" y1="470" x2="220.5" stroke="#092E43" stroke-opacity="0.29" stroke-width="3"/>
<line x1="283.5" y1="470" x2="283.5" stroke="#092E43" stroke-opacity="0.29" stroke-width="3"/>
<line x1="283.5" y1="470" x2="283.5" stroke="#092E43" stroke-opacity="0.29" stroke-width="3"/>
<line x1="283.5" y1="470" x2="283.5" stroke="#092E43" stroke-opacity="0.29" stroke-width="3"/>
<line x1="344.5" y1="470" x2="344.5" stroke="#092E43" stroke-opacity="0.29" stroke-width="3"/>
<line x1="344.5" y1="470" x2="344.5" stroke="#092E43" stroke-opacity="0.29" stroke-width="3"/>
<line x1="344.5" y1="470" x2="344.5" stroke="#092E43" stroke-opacity="0.29" stroke-width="3"/>
<line x1="408.5" y1="470" x2="408.5" stroke="#092E43" stroke-opacity="0.29" stroke-width="3"/>
<line x1="408.5" y1="470" x2="408.5" stroke="#092E43" stroke-opacity="0.29" stroke-width="3"/>
<line x1="408.5" y1="470" x2="408.5" stroke="#092E43" stroke-opacity="0.29" stroke-width="3"/>
<line x1="468.5" y1="470" x2="468.5" stroke="#092E43" stroke-opacity="0.29" stroke-width="3"/>
<line x1="468.5" y1="470" x2="468.5" stroke="#092E43" stroke-opacity="0.29" stroke-width="3"/>
<line x1="468.5" y1="470" x2="468.5" stroke="#092E43" stroke-opacity="0.29" stroke-width="3"/>
<line x1="532.5" y1="470" x2="532.5" stroke="#092E43" stroke-opacity="0.29" stroke-width="3"/>
<line x1="532.5" y1="470" x2="532.5" stroke="#092E43" stroke-opacity="0.29" stroke-width="3"/>
<line x1="532.5" y1="470" x2="532.5" stroke="#092E43" stroke-opacity="0.29" stroke-width="3"/>
<line x1="593.5" y1="470" x2="593.5" stroke="#092E43" stroke-opacity="0.29" stroke-width="3"/>
<line x1="593.5" y1="470" x2="593.5" stroke="#092E43" stroke-opacity="0.29" stroke-width="3"/>
<line x1="593.5" y1="470" x2="593.5" stroke="#092E43" stroke-opacity="0.29" stroke-width="3"/>
<line x1="657.5" y1="470" x2="657.5" stroke="#092E43" stroke-opacity="0.29" stroke-width="3"/>
<line x1="657.5" y1="470" x2="657.5" stroke="#092E43" stroke-opacity="0.29" stroke-width="3"/>
<line x1="657.5" y1="470" x2="657.5" stroke="#092E43" stroke-opacity="0.29" stroke-width="3"/>
<line x1="733.5" y1="470" x2="733.5" stroke="#092E43" stroke-opacity="0.29" stroke-width="3"/>
<line x1="733.5" y1="470" x2="733.5" stroke="#092E43" stroke-opacity="0.29" stroke-width="3"/>
<line x1="733.5" y1="470" x2="733.5" stroke="#092E43" stroke-opacity="0.29" stroke-width="3"/>
<line x1="797.5" y1="470" x2="797.5" stroke="#092E43" stroke-opacity="0.29" stroke-width="3"/>
<line x1="797.5" y1="470" x2="797.5" stroke="#092E43" stroke-opacity="0.29" stroke-width="3"/>
<line x1="797.5" y1="470" x2="797.5" stroke="#092E43" stroke-opacity="0.29" stroke-width="3"/>
<line x1="91.5" y1="470" x2="91.5" stroke="#092E43" stroke-opacity="0.29" stroke-width="3"/>
<line x1="91.5" y1="470" x2="91.5" stroke="#092E43" stroke-opacity="0.29" stroke-width="3"/>
<line x1="91.5" y1="470" x2="91.5" stroke="#092E43" stroke-opacity="0.29" stroke-width="3"/>
<line x1="155.5" y1="470" x2="155.5" stroke="#092E43" stroke-opacity="0.29" stroke-width="3"/>
<line x1="155.5" y1="470" x2="155.5" stroke="#092E43" stroke-opacity="0.29" stroke-width="3"/>
<line x1="155.5" y1="470" x2="155.5" stroke="#092E43" stroke-opacity="0.29" stroke-width="3"/>
<line x1="905" y1="430.5" x2="1.41859e-05" y2="430.5" stroke="#092E43" stroke-opacity="0.29" stroke-width="3"/>
<line x1="905" y1="430.5" x2="1.41859e-05" y2="430.5" stroke="#092E43" stroke-opacity="0.29" stroke-width="3"/>
<line x1="905" y1="430.5" x2="1.41859e-05" y2="430.5" stroke="#092E43" stroke-opacity="0.29" stroke-width="3"/>
<line x1="905" y1="370.5" x2="1.41859e-05" y2="370.5" stroke="#092E43" stroke-opacity="0.29" stroke-width="3"/>
<line x1="905" y1="370.5" x2="1.41859e-05" y2="370.5" stroke="#092E43" stroke-opacity="0.29" stroke-width="3"/>
<line x1="905" y1="370.5" x2="1.41859e-05" y2="370.5" stroke="#092E43" stroke-opacity="0.29" stroke-width="3"/>
<line x1="905" y1="306.5" x2="1.41859e-05" y2="306.5" stroke="#092E43" stroke-opacity="0.29" stroke-width="3"/>
<line x1="905" y1="306.5" x2="1.41859e-05" y2="306.5" stroke="#092E43" stroke-opacity="0.29" stroke-width="3"/>
<line x1="905" y1="306.5" x2="1.41859e-05" y2="306.5" stroke="#092E43" stroke-opacity="0.29" stroke-width="3"/>
<line x1="905" y1="245.5" x2="1.41859e-05" y2="245.5" stroke="#092E43" stroke-opacity="0.29" stroke-width="3"/>
<line x1="905" y1="245.5" x2="1.41859e-05" y2="245.5" stroke="#092E43" stroke-opacity="0.29" stroke-width="3"/>
<line x1="905" y1="245.5" x2="1.41859e-05" y2="245.5" stroke="#092E43" stroke-opacity="0.29" stroke-width="3"/>
<line x1="905" y1="181.5" x2="1.41859e-05" y2="181.5" stroke="#092E43" stroke-opacity="0.29" stroke-width="3"/>
<line x1="905" y1="181.5" x2="1.41859e-05" y2="181.5" stroke="#092E43" stroke-opacity="0.29" stroke-width="3"/>
<line x1="905" y1="181.5" x2="1.41859e-05" y2="181.5" stroke="#092E43" stroke-opacity="0.29" stroke-width="3"/>
<line x1="905" y1="105.5" x2="1.41859e-05" y2="105.5" stroke="#092E43" stroke-opacity="0.29" stroke-width="3"/>
<line x1="905" y1="105.5" x2="1.41859e-05" y2="105.5" stroke="#092E43" stroke-opacity="0.29" stroke-width="3"/>
<line x1="905" y1="105.5" x2="1.41859e-05" y2="105.5" stroke="#092E43" stroke-opacity="0.29" stroke-width="3"/>
<line x1="905" y1="41.5" x2="1.41859e-05" y2="41.5" stroke="#092E43" stroke-opacity="0.29" stroke-width="3"/>
<line x1="905" y1="41.5" x2="1.41859e-05" y2="41.5" stroke="#092E43" stroke-opacity="0.29" stroke-width="3"/>
<line x1="905" y1="41.5" x2="1.41859e-05" y2="41.5" stroke="#092E43" stroke-opacity="0.29" stroke-width="3"/>
</svg>
