<svg width="905" height="470" viewBox="0 0 905 470" fill="none" xmlns="http://www.w3.org/2000/svg">
<line x1="221.5" y1="470" x2="221.5" stroke="#191A51"/>
<line x1="284.5" y1="470" x2="284.5" stroke="#191A51"/>
<line x1="345.5" y1="470" x2="345.5" stroke="#191A51"/>
<line x1="409.5" y1="470" x2="409.5" stroke="#191A51"/>
<line x1="469.5" y1="470" x2="469.5" stroke="#191A51"/>
<line x1="533.5" y1="470" x2="533.5" stroke="#191A51"/>
<line x1="594.5" y1="470" x2="594.5" stroke="#191A51"/>
<line x1="658.5" y1="470" x2="658.5" stroke="#191A51"/>
<line x1="734.5" y1="470" x2="734.5" stroke="#191A51"/>
<line x1="798.5" y1="470" x2="798.5" stroke="#191A51"/>
<line x1="92.5" y1="470" x2="92.5" stroke="#191A51"/>
<line x1="156.5" y1="470" x2="156.5" stroke="#191A51"/>
<line x1="905" y1="429.5" x2="1.41859e-05" y2="429.5" stroke="#191A51"/>
<line x1="905" y1="369.5" x2="1.41859e-05" y2="369.5" stroke="#191A51"/>
<line x1="905" y1="305.5" x2="1.41859e-05" y2="305.5" stroke="#191A51"/>
<line x1="905" y1="244.5" x2="1.41859e-05" y2="244.5" stroke="#191A51"/>
<line x1="905" y1="180.5" x2="1.41859e-05" y2="180.5" stroke="#191A51"/>
<line x1="905" y1="104.5" x2="1.41859e-05" y2="104.5" stroke="#191A51"/>
<line x1="905" y1="40.5" x2="1.41859e-05" y2="40.5" stroke="#191A51"/>
</svg>
